o Plane
v 0.400000 0.000000 -0.400000
v 0.600000 0.000000 -0.400000
v 0.400000 0.000000 -0.600000
v 0.600000 0.000000 -0.600000
v 0.600000 0.300000 -0.400000
v 0.600000 0.300000 -0.600000
v 0.400000 0.300000 -0.600000
v 0.400000 0.300000 -0.400000
v 0.700000 0.300000 -1.000000
v 0.700000 0.300000 0.000000
v 0.300000 0.300000 -0.000000
v 0.300000 0.300000 -1.000000
v 0.300000 0.600000 -1.000000
v 0.700000 0.600000 -1.000000
v 0.700000 0.600000 -0.000000
v 0.300000 0.600000 -0.000000
vn -1.0000 -0.0000 -0.0000
vn -0.0000 1.0000 -0.0000
vn 1.0000 -0.0000 -0.0000
vn -0.0000 -0.0000 -1.0000
vn -0.0000 -0.0000 1.0000
vn -0.0000 -1.0000 -0.0000
vt 0.767857 0.000000
vt 0.821429 0.000000
vt 0.821429 0.892857
vt 0.767857 0.892857
vt 1.000000 0.714286
vt 1.000000 0.892857
vt 0.821429 0.892857
vt 0.821429 0.714286
vt 0.875000 0.000000
vt 0.928572 0.000000
vt 0.928572 0.178571
vt 0.875000 0.178571
vt 0.928572 0.000000
vt 0.982143 -0.000000
vt 0.982143 0.178571
vt 0.928572 0.178571
vt 0.875000 0.178571
vt 0.928572 0.357143
vt 0.875000 0.357143
vt 0.928572 0.535714
vt 0.875000 0.535714
vt 0.000000 0.000000
vt 0.357143 0.892857
vt 0.000000 0.892857
vt 0.357143 0.000000
vt 0.821429 0.000000
vt 0.875000 0.000000
vt 0.875000 0.357143
vt 0.821429 0.357143
vt 0.875000 0.714286
vt 0.821429 0.714286
vt 0.714286 0.892857
vt 0.767857 0.000000
vt 0.767857 0.892857
vt 0.714286 0.000000
vt 0.714286 0.000000
vt 0.714286 0.892857
vt 0.357143 0.892857
s 0
f 13/1/1 12/2/1 11/3/1
f 13/1/1 11/3/1 16/4/1
f 2/5/2 4/6/2 3/7/2
f 2/5/2 3/7/2 1/8/2
f 8/9/3 1/10/3 3/11/3
f 8/9/3 3/11/3 7/12/3
f 5/13/4 2/14/4 1/15/4
f 5/13/4 1/15/4 8/16/4
f 7/17/5 3/11/5 4/18/5
f 7/17/5 4/18/5 6/19/5
f 6/19/1 4/18/1 2/20/1
f 6/19/1 2/20/1 5/21/1
f 11/22/2 9/23/2 12/24/2
f 11/22/2 10/25/2 9/23/2
f 16/26/5 11/27/5 10/28/5
f 16/26/5 10/28/5 15/29/5
f 13/29/5 12/28/5 9/30/5
f 13/29/5 9/30/5 14/31/5
f 15/32/1 9/33/1 10/34/1
f 15/32/1 14/35/1 9/33/1
f 16/36/6 13/37/6 14/38/6
f 16/36/6 14/38/6 15/25/6
